<svg height="24" viewBox="0 0 24 24" width="24" xmlns="http://www.w3.org/2000/svg" xmlns:xlink="http://www.w3.org/1999/xlink"><defs><circle id="a" cx="1.5" cy="1.5" r="1.5"/><path id="b" d="m15.2531513 7.80937706h-1.268044c-.360938 0-.693867-.19450342-.8711157-.50892221l-2.2332055-3.96145068-2.6068171 6.76665573c-.31526179.818342-1.45615813.8634301-1.83501747.0725197l-2.2134349-4.62078794-1.08956615 1.77510522c-.18187264.29630424-.50458997.47688018-.85225915.47688018h-1.28369133c-.55228475 0-1-.44771525-1-1s.44771525-1 1-1h.724143l1.75758215-2.86342709c.41440063-.67513544 1.41190164-.62332513 1.75412785.09110959l2.00526218 4.1862046 2.53594106-6.58267897c.30395046-.78898051 1.38905646-.8681187 1.80426446-.13158734l2.9880055 5.30037921h.4987964c.3206561-1.60223778 1.7352955-2.80937706 3.4318774-2.80937706 1.9329966 0 3.5 1.56700338 3.5 3.5s-1.5670034 3.5-3.5 3.5c-1.4700445 0-2.7284128-.90629313-3.2468487-2.19062294zm3.2468487.19062294c.8284271 0 1.5-.67157288 1.5-1.5s-.6715729-1.5-1.5-1.5-1.5.67157288-1.5 1.5.6715729 1.5 1.5 1.5z"/><mask id="c" fill="#fff"><use fill="#fff" fill-rule="evenodd" xlink:href="#a"/></mask><mask id="d" fill="#fff"><use fill="#fff" fill-rule="evenodd" xlink:href="#b"/></mask></defs><g fill="none" fill-rule="evenodd" transform="translate(1 6)"><g transform="translate(18 6)"><use fill="#d8d8d8" xlink:href="#a"/><g fill="#ffa0a0" mask="url(#c)"><path d="m0 0h24v24h-24z" transform="translate(-19 -12)"/></g></g><use fill="#000" fill-rule="nonzero" xlink:href="#b"/><g fill="#7600ff" mask="url(#d)"><path d="m0 0h24v24h-24z" transform="translate(-1 -6)"/></g></g></svg>